# xmcd CD database file
# Copyright (C) 1996 Ti Kan
#
# Track frame offsets:
#  150
#  22290
#  47042
#  66895
#  87845
#  102910
#  121825
#  141340
#  163232
#  179162
#
# Disc length: 2690 seconds
#
# Revision: 2
# Processed by: cddbd v1.4b41PL1 Copyright (c) Steve Scherf et al.
# Submitted via: CDWizzard Release:4.12
#
DISCID=930a800a
DTITLE=Bobby "Blue" Bland - Portrait Of The Blues
DYEAR=1900
DGENRE=
TTITLE0=Ain't No Love For Sale
TTITLE1=Hurtin' Love
TTITLE2=These Are The Things That A Woman Needs
TTITLE3=I Can Take You To Heaven Tonight
TTITLE4=The Last One To Know
TTITLE5=Just Take My Love
TTITLE6=I Won't Be Your Fool Anymore
TTITLE7=She's Puttin' Something In My Food
TTITLE8=When Hearts Grow Cold
TTITLE9=Let Love Have Its Way
EXTD=
EXTT0=
EXTT1=
EXTT2=
EXTT3=
EXTT4=
EXTT5=
EXTT6=
EXTT7=
EXTT8=
EXTT9=
PLAYORDER=
